<svg class="ikea-b" viewBox="0 0 1831 1395" fill="none" xmlns="http://www.w3.org/2000/svg">
<path d="M23.9086 1309.31C23.9086 1351.16 11.9543 1381.05 0 1395H1350.84C1665.63 1395 1831 1251.51 1831 1020.34C1831 846.964 1759.27 739.35 1573.98 667.607C1725.4 589.886 1785.18 502.2 1785.18 350.743C1785.18 137.507 1615.82 0 1354.82 0H0C13.9467 15.9429 23.9086 47.8286 23.9086 89.6786V1309.31ZM798.946 538.071V320.85L942.397 318.857C1016.12 316.864 1057.96 354.729 1057.96 424.479C1057.96 500.207 1022.09 538.071 942.397 538.071H798.946ZM798.946 1056.21V831.021L962.321 829.029C1032.05 829.029 1079.87 870.879 1079.87 938.636C1079.87 1016.36 1040.02 1056.21 962.321 1056.21H798.946Z" fill="black"/>
</svg>
